<?xml version="1.0" encoding="UTF-8"?>
<svg id="Calque_1" data-name="Calque 1" xmlns="http://www.w3.org/2000/svg" version="1.1" viewBox="0 0 800 800">
  <defs>
    <style>
      .cls-1 {
        fill: none;
        stroke: #fff;
        stroke-linecap: round;
        stroke-linejoin: round;
        stroke-width: 16.7px;
      }
    </style>
  </defs>
  <path class="cls-1" d="M293.2,569.6c-14.8,21.8-31.6,43.6-48.5,63.8-123-3.5-169.7-83.3-169.7-83.3,1.7-113.1,29.2-224.4,80.2-325.3,44.8-35.1,99.5-55.3,156.3-58l16.7,38.5c23.8-3.3,47.8-5,71.8-5.2,24.1,0,48.2,1.7,72.2,5l16.7-38.5c56.9,2.8,111.6,23.2,156.3,58.5,50.8,100.9,78.1,212,79.8,325,0,0-46.7,79.8-169.7,83.3-16.9-20.4-32.9-41.5-47.7-63.5M615.3,521.5c-64,32.4-125.9,64.8-215.3,64.8s-151.3-32.4-215.3-64.8"/>
  <circle class="cls-1" cx="297.4" cy="437.2" r="55.8"/>
  <circle class="cls-1" cx="502.5" cy="437.2" r="55.8" transform="translate(-9.5 863.2) rotate(-80.8)"/>
</svg>