<svg width="1312" height="150" viewBox="0 0 1312 150" fill="none" xmlns="http://www.w3.org/2000/svg">
<path d="M65.1729 123H50.0117V58.3271L40.417 92.6777H28.6982L19.25 58.3271V123H4.08887V27.4189H22.1064L34.5576 70.6318L47.0088 27.4189H65.1729V123ZM139.66 123H93.8105V109.377H108.898V41.1152H93.8105V27.4189H139.66V41.1152H124.06V109.377H139.66V123ZM233.996 93.7764C232.824 98.4639 231.262 102.712 229.309 106.521C227.355 110.329 224.963 113.576 222.131 116.262C219.348 118.947 216.076 121.022 212.316 122.487C208.605 123.952 204.333 124.685 199.499 124.685C192.81 124.685 187.146 123.317 182.507 120.583C177.868 117.8 174.06 114.113 171.081 109.523C168.151 104.885 166.027 99.6113 164.709 93.7031C163.439 87.7461 162.805 81.5693 162.805 75.1729C162.805 68.7764 163.439 62.5996 164.709 56.6426C166.027 50.6855 168.127 45.4365 171.008 40.8955C173.938 36.3545 177.648 32.7168 182.141 29.9824C186.633 27.1992 192.126 25.8076 198.62 25.8076C200.72 25.8076 202.844 26.0762 204.992 26.6133C207.141 27.1504 209.143 27.9805 210.998 29.1035C212.854 30.1777 214.465 31.5205 215.832 33.1318C217.248 34.7432 218.249 36.5986 218.835 38.6982V27.4189H232.531V63.6006H218.835C218.835 60.6221 218.469 57.6924 217.736 54.8115C217.004 51.8818 215.832 49.2939 214.221 47.0479C212.609 44.8018 210.583 42.9707 208.142 41.5547C205.7 40.1387 202.819 39.4307 199.499 39.4307C195.202 39.4307 191.687 40.4805 188.952 42.5801C186.218 44.6797 184.021 47.4385 182.36 50.8564C180.7 54.2744 179.528 58.1074 178.845 62.3555C178.21 66.6035 177.893 70.876 177.893 75.1729C177.893 79.4697 178.21 83.7666 178.845 88.0635C179.528 92.3604 180.676 96.2178 182.287 99.6357C183.898 103.005 186.096 105.739 188.879 107.839C191.662 109.938 195.202 110.988 199.499 110.988C205.7 110.988 210.461 109.011 213.781 105.056C217.15 101.101 219.836 95.7783 221.838 89.0889L233.996 93.7764ZM315.734 123H296.545L271.789 84.3281H264.904V123H249.743V27.4189H281.237C291.735 27.4189 299.89 29.8359 305.7 34.6699C311.511 39.4551 314.416 46.5596 314.416 55.9834C314.416 60.1826 313.757 63.8936 312.438 67.1162C311.169 70.29 309.338 73.0244 306.945 75.3193C304.602 77.6143 301.843 79.4453 298.669 80.8125C295.544 82.1309 292.15 83.0342 288.488 83.5225L315.734 123ZM299.255 55.7637C299.255 50.8809 297.644 47.2187 294.421 44.7773C291.247 42.3359 286.853 41.1152 281.237 41.1152H264.904V70.6318H281.237C286.853 70.6318 291.247 69.4111 294.421 66.9697C297.644 64.5283 299.255 60.793 299.255 55.7637ZM325.622 75.1729C325.622 68.7764 326.306 62.5996 327.673 56.6426C329.04 50.6855 331.164 45.4365 334.045 40.8955C336.926 36.3545 340.686 32.7168 345.324 29.9824C350.012 27.1992 355.651 25.8076 362.243 25.8076C368.835 25.8076 374.45 27.1992 379.089 29.9824C383.776 32.7168 387.585 36.3545 390.515 40.8955C393.444 45.4365 395.568 50.6855 396.887 56.6426C398.205 62.5996 398.864 68.7764 398.864 75.1729C398.864 81.5693 398.205 87.7461 396.887 93.7031C395.568 99.6113 393.469 104.885 390.588 109.523C387.707 114.113 383.923 117.8 379.235 120.583C374.597 123.317 368.933 124.685 362.243 124.685C355.554 124.685 349.865 123.317 345.178 120.583C340.539 117.8 336.755 114.113 333.825 109.523C330.944 104.885 328.869 99.6113 327.6 93.7031C326.281 87.7461 325.622 81.5693 325.622 75.1729ZM340.783 75.1729C340.783 79.4697 341.101 83.7666 341.735 88.0635C342.419 92.3604 343.542 96.2178 345.104 99.6357C346.716 103.005 348.889 105.739 351.623 107.839C354.406 109.938 357.946 110.988 362.243 110.988C366.54 110.988 370.056 109.938 372.79 107.839C375.573 105.739 377.746 103.005 379.309 99.6357C380.92 96.2178 382.043 92.3604 382.678 88.0635C383.361 83.7666 383.703 79.4697 383.703 75.1729C383.703 70.876 383.361 66.6035 382.678 62.3555C382.043 58.1074 380.92 54.2744 379.309 50.8564C377.746 47.4385 375.549 44.6797 372.717 42.5801C369.934 40.4805 366.442 39.4307 362.243 39.4307C355.261 39.4307 349.938 42.5801 346.276 48.8789C342.614 55.1777 340.783 63.9424 340.783 75.1729ZM482.507 27.4189L452.697 123H435.412L405.603 27.4189H421.496L444.128 103.078L466.613 27.4189H482.507ZM549.084 123H503.234V109.377H518.322V41.1152H503.234V27.4189H549.084V41.1152H533.483V109.377H549.084V123ZM639.538 96.7793C639.538 101.174 638.781 105.104 637.268 108.571C635.803 111.989 633.776 114.895 631.188 117.287C628.649 119.68 625.598 121.511 622.033 122.78C618.518 124.05 614.758 124.685 610.754 124.685C606.262 124.685 602.209 123.879 598.596 122.268C594.982 120.656 591.882 117.995 589.294 114.284V123H575.671V91.7988H589.294C589.294 94.9238 589.831 97.6826 590.905 100.075C592.028 102.468 593.493 104.494 595.3 106.154C597.106 107.766 599.206 109.011 601.599 109.89C603.991 110.72 606.53 111.135 609.216 111.135C613.757 111.135 617.419 110.085 620.202 107.985C622.985 105.886 624.377 102.541 624.377 97.9512C624.377 95.5586 623.938 93.5078 623.059 91.7988C622.229 90.0898 621.008 88.5762 619.396 87.2578C617.834 85.8906 615.905 84.7188 613.61 83.7422C611.315 82.7168 608.703 81.6426 605.773 80.5195C602.307 79.3477 598.84 78.0293 595.373 76.5645C591.906 75.0996 588.806 73.293 586.071 71.1445C583.337 68.9961 581.115 66.3594 579.406 63.2344C577.697 60.0605 576.843 56.0811 576.843 51.2959C576.843 47.0967 577.6 43.4346 579.113 40.3096C580.676 37.1357 582.727 34.4746 585.266 32.3262C587.854 30.1777 590.832 28.5664 594.201 27.4922C597.619 26.3691 601.232 25.8076 605.041 25.8076C609.436 25.8076 613.195 26.7354 616.32 28.5908C619.494 30.4463 621.936 32.9121 623.645 35.9883V27.4189H637.268V57.1553H623.645C623.645 51.54 622.155 47.1699 619.177 44.0449C616.247 40.8711 612.292 39.2842 607.312 39.2842C602.917 39.2842 599.255 40.3096 596.325 42.3604C593.444 44.4111 592.004 47.292 592.004 51.0029C592.004 52.9072 592.37 54.543 593.103 55.9102C593.884 57.2285 594.982 58.4492 596.398 59.5723C597.863 60.6465 599.694 61.6719 601.892 62.6484C604.089 63.5762 606.628 64.6016 609.509 65.7246C613.122 66.9941 616.711 68.4346 620.275 70.0459C623.84 71.6572 627.038 73.6348 629.87 75.9785C632.702 78.3223 635.021 81.1787 636.828 84.5479C638.635 87.8682 639.538 91.9453 639.538 96.7793ZM712.854 123H667.004V109.377H682.092V41.1152H667.004V27.4189H712.854V41.1152H697.253V109.377H712.854V123ZM735.046 75.1729C735.046 68.7764 735.729 62.5996 737.097 56.6426C738.464 50.6855 740.588 45.4365 743.469 40.8955C746.35 36.3545 750.109 32.7168 754.748 29.9824C759.436 27.1992 765.075 25.8076 771.667 25.8076C778.259 25.8076 783.874 27.1992 788.513 29.9824C793.2 32.7168 797.009 36.3545 799.938 40.8955C802.868 45.4365 804.992 50.6855 806.311 56.6426C807.629 62.5996 808.288 68.7764 808.288 75.1729C808.288 81.5693 807.629 87.7461 806.311 93.7031C804.992 99.6113 802.893 104.885 800.012 109.523C797.131 114.113 793.347 117.8 788.659 120.583C784.021 123.317 778.356 124.685 771.667 124.685C764.978 124.685 759.289 123.317 754.602 120.583C749.963 117.8 746.179 114.113 743.249 109.523C740.368 104.885 738.293 99.6113 737.023 93.7031C735.705 87.7461 735.046 81.5693 735.046 75.1729ZM750.207 75.1729C750.207 79.4697 750.524 83.7666 751.159 88.0635C751.843 92.3604 752.966 96.2178 754.528 99.6357C756.14 103.005 758.312 105.739 761.047 107.839C763.83 109.938 767.37 110.988 771.667 110.988C775.964 110.988 779.479 109.938 782.214 107.839C784.997 105.739 787.17 103.005 788.732 99.6357C790.344 96.2178 791.467 92.3604 792.102 88.0635C792.785 83.7666 793.127 79.4697 793.127 75.1729C793.127 70.876 792.785 66.6035 792.102 62.3555C791.467 58.1074 790.344 54.2744 788.732 50.8564C787.17 47.4385 784.973 44.6797 782.141 42.5801C779.357 40.4805 775.866 39.4307 771.667 39.4307C764.685 39.4307 759.362 42.5801 755.7 48.8789C752.038 55.1777 750.207 63.9424 750.207 75.1729ZM884.021 123H866.442L838.098 53.7129V123H822.937V27.4189H841.979L868.859 93.2637V27.4189H884.021V123ZM970.959 93.7764C969.787 98.4639 968.225 102.712 966.271 106.521C964.318 110.329 961.926 113.576 959.094 116.262C956.311 118.947 953.039 121.022 949.279 122.487C945.568 123.952 941.296 124.685 936.462 124.685C929.772 124.685 924.108 123.317 919.47 120.583C914.831 117.8 911.022 114.113 908.044 109.523C905.114 104.885 902.99 99.6113 901.672 93.7031C900.402 87.7461 899.768 81.5693 899.768 75.1729C899.768 68.7764 900.402 62.5996 901.672 56.6426C902.99 50.6855 905.09 45.4365 907.971 40.8955C910.9 36.3545 914.611 32.7168 919.104 29.9824C923.596 27.1992 929.089 25.8076 935.583 25.8076C937.683 25.8076 939.807 26.0762 941.955 26.6133C944.104 27.1504 946.105 27.9805 947.961 29.1035C949.816 30.1777 951.428 31.5205 952.795 33.1318C954.211 34.7432 955.212 36.5986 955.798 38.6982V27.4189H969.494V63.6006H955.798C955.798 60.6221 955.432 57.6924 954.699 54.8115C953.967 51.8818 952.795 49.2939 951.184 47.0479C949.572 44.8018 947.546 42.9707 945.104 41.5547C942.663 40.1387 939.782 39.4307 936.462 39.4307C932.165 39.4307 928.649 40.4805 925.915 42.5801C923.181 44.6797 920.983 47.4385 919.323 50.8564C917.663 54.2744 916.491 58.1074 915.808 62.3555C915.173 66.6035 914.855 70.876 914.855 75.1729C914.855 79.4697 915.173 83.7666 915.808 88.0635C916.491 92.3604 917.639 96.2178 919.25 99.6357C920.861 103.005 923.059 105.739 925.842 107.839C928.625 109.938 932.165 110.988 936.462 110.988C942.663 110.988 947.424 109.011 950.744 105.056C954.113 101.101 956.799 95.7783 958.801 89.0889L970.959 93.7764ZM1047.79 123H1032.63V81.1787H1001.87V123H986.706V27.4189H1001.87V67.4824H1032.63V27.4189H1047.79V123ZM1121.84 123L1114.95 100.222H1083.31L1076.57 123H1060.68L1090.49 27.4189H1107.92L1137.73 123H1121.84ZM1087.34 86.8184H1110.92L1099.21 47.4141L1087.34 86.8184ZM1204.16 123H1158.31V109.377H1173.4V41.1152H1158.31V27.4189H1204.16V41.1152H1188.56V109.377H1204.16V123ZM1293.44 123H1275.87L1247.52 53.7129V123H1232.36V27.4189H1251.4L1278.28 93.2637V27.4189H1293.44V123Z" fill="white"/>
</svg>
