<svg width="24" height="24" viewBox="0 0 24 24" fill="none" xmlns="http://www.w3.org/2000/svg">
<path fill-rule="evenodd" clip-rule="evenodd" d="M2.80215 8.35243C2.52215 10.9554 2.53415 13.9574 2.92415 16.5504C3.02883 17.2473 3.36502 17.8886 3.87857 18.3712C4.39212 18.8537 5.05313 19.1493 5.75515 19.2104L7.26515 19.3404C10.4151 19.6144 13.5811 19.6144 16.7311 19.3404L18.2411 19.2104C18.9432 19.1493 19.6042 18.8537 20.1177 18.3712C20.6313 17.8886 20.9675 17.2473 21.0721 16.5504C21.4621 13.9574 21.4741 10.9554 21.1941 8.35243C21.158 8.0505 21.1173 7.74914 21.0721 7.44843C20.9675 6.75158 20.6313 6.11024 20.1177 5.62771C19.6042 5.14518 18.9432 4.84955 18.2411 4.78843L16.7311 4.65843C13.5821 4.38469 10.4152 4.38469 7.26615 4.65843L5.75615 4.78843C5.05395 4.84934 4.39271 5.14487 3.87896 5.62742C3.36521 6.10997 3.02888 6.75142 2.92415 7.44843C2.87906 7.74915 2.83839 8.05052 2.80215 8.35243ZM7.39515 6.15243C10.4577 5.8862 13.5376 5.8862 16.6001 6.15243L18.1101 6.28343C18.4768 6.31544 18.822 6.46982 19.0902 6.72176C19.3585 6.9737 19.5342 7.30854 19.5891 7.67243L19.6231 7.90543L14.0621 10.9954C13.4308 11.3462 12.7204 11.5303 11.9981 11.5303C11.2759 11.5303 10.5655 11.3462 9.93415 10.9954L4.37315 7.90543L4.40715 7.67243C4.4617 7.30855 4.63718 6.97363 4.9053 6.72165C5.17343 6.46967 5.51858 6.31531 5.88515 6.28343L7.39515 6.15243ZM19.8061 9.51943C20.0005 11.7891 19.9277 14.0737 19.5891 16.3264C19.5346 16.6903 19.3591 17.0252 19.091 17.2772C18.8229 17.5292 18.4777 17.6836 18.1111 17.7154L16.6011 17.8464C13.5383 18.1127 10.458 18.1127 7.39515 17.8464L5.88515 17.7154C5.51858 17.6836 5.17343 17.5292 4.9053 17.2772C4.63718 17.0252 4.4617 16.6903 4.40715 16.3264C4.0683 14.0738 3.99513 11.7891 4.18915 9.51943L9.20515 12.3064C10.0594 12.781 11.0204 13.0301 11.9976 13.0301C12.9748 13.0301 13.9359 12.781 14.7901 12.3064L19.8061 9.51943Z" fill="#EEEEFB"/>
</svg>
