<svg width="24" height="24" viewBox="0 0 24 24" fill="none" xmlns="http://www.w3.org/2000/svg">
<g clip-path="url(#clip0_676_179)">
<path d="M15.0059 4C15.2649 4 15.5899 4.068 15.8509 4.132C16.7609 4.352 17.8399 4.625 18.6059 5.2C19.3189 5.735 19.8729 6.668 20.3009 7.616C21.1909 9.591 21.8099 12.224 22.0239 14.226C22.1259 15.176 22.1509 16.132 21.9679 16.775C21.8779 17.091 21.6829 17.329 21.5459 17.475C21.1279 17.918 20.5899 18.249 20.0579 18.55L19.7939 18.699C19.6201 18.7957 19.4451 18.8904 19.2689 18.983L18.7469 19.253L18.0299 19.61L17.4529 19.894C17.2418 19.9998 17 20.0274 16.7705 19.972C16.5409 19.9166 16.3383 19.7817 16.1987 19.5913C16.059 19.4008 15.9913 19.1671 16.0074 18.9315C16.0236 18.6959 16.1226 18.4736 16.2869 18.304L15.8529 17.436C14.605 17.8152 13.3072 18.0054 12.0029 18C10.6329 18 9.32594 17.8 8.15294 17.436L7.71994 18.302C7.8849 18.4713 7.98455 18.6936 8.0012 18.9294C8.01786 19.1652 7.95045 19.3992 7.81093 19.5901C7.67141 19.7809 7.46881 19.9161 7.23907 19.9717C7.00933 20.0274 6.76731 19.9998 6.55594 19.894L6.01194 19.624C5.40794 19.326 4.80394 19.028 4.21594 18.699C3.60194 18.356 2.95094 17.991 2.46394 17.474C2.2696 17.2776 2.12493 17.0376 2.04194 16.774C1.85794 16.132 1.88394 15.177 1.98494 14.226C2.19894 12.224 2.81794 9.591 3.70894 7.616C4.13594 6.668 4.68994 5.735 5.40294 5.2C6.16894 4.625 7.24794 4.352 8.15794 4.132C8.41894 4.068 8.74294 4 9.00294 4C9.14676 3.99988 9.28892 4.03078 9.41971 4.09059C9.5505 4.15041 9.66685 4.23773 9.76082 4.3466C9.85479 4.45548 9.92418 4.58334 9.96424 4.72147C10.0043 4.8596 10.0141 5.00474 9.99294 5.147C10.6584 5.04854 11.3302 4.9994 12.0029 5C12.6939 5 13.3689 5.05 14.0169 5.148C13.9956 5.00567 14.0053 4.86041 14.0453 4.72216C14.0853 4.58391 14.1546 4.45592 14.2486 4.34693C14.3426 4.23794 14.459 4.15052 14.5899 4.09065C14.7208 4.03078 14.862 3.99985 15.0059 4ZM16.3599 6.363C16.2099 6.315 16.1739 6.336 16.1199 6.426L16.0579 6.538C15.8963 6.81506 15.6509 7.03367 15.3571 7.16234C15.0633 7.29102 14.7362 7.32311 14.4229 7.254C13.6276 7.08328 12.8164 6.99813 12.0029 7C11.1509 7 10.3359 7.09 9.58294 7.254C9.26971 7.32311 8.94263 7.29102 8.64881 7.16234C8.35498 7.03367 8.10958 6.81506 7.94794 6.538L7.88594 6.427C7.83294 6.337 7.79694 6.316 7.64794 6.363C7.29194 6.476 6.90994 6.597 6.60294 6.8C6.31594 7.015 5.93294 7.55 5.53194 8.439C4.76594 10.136 4.16594 12.643 3.97394 14.439C3.93394 14.818 3.91294 15.143 3.90794 15.411V15.705C3.91194 15.883 3.92494 16.024 3.94294 16.127C4.19694 16.375 4.51094 16.57 4.82594 16.749L5.50794 17.126L5.95394 17.361L6.31794 16.633C6.14171 16.4688 6.03067 16.2465 6.00524 16.007C5.97981 15.7674 6.0417 15.5268 6.17952 15.3292C6.31735 15.1317 6.52185 14.9905 6.75543 14.9317C6.98902 14.8728 7.23599 14.9003 7.45094 15.009C8.66694 15.62 10.2489 16 12.0029 16C13.7559 16 15.3389 15.618 16.5549 15.01C16.7607 14.9069 16.9957 14.878 17.2204 14.928C17.445 14.9781 17.6455 15.1041 17.788 15.2848C17.9306 15.4655 18.0064 15.6899 18.0027 15.92C17.9991 16.1501 17.9161 16.3719 17.7679 16.548L17.6879 16.633L18.0519 17.363C18.3499 17.209 18.6489 17.046 18.9489 16.88C19.3389 16.664 19.7489 16.437 20.0659 16.127C20.0839 16.024 20.0959 15.883 20.1009 15.705V15.411C20.0928 15.0859 20.0708 14.7612 20.0349 14.438C19.8429 12.643 19.2429 10.136 18.4769 8.438C18.0769 7.55 17.6929 7.015 17.4069 6.8C17.0989 6.597 16.7169 6.476 16.3599 6.363ZM8.75294 10.5C9.21707 10.5 9.66219 10.6844 9.99038 11.0126C10.3186 11.3408 10.5029 11.7859 10.5029 12.25C10.5029 12.7141 10.3186 13.1592 9.99038 13.4874C9.66219 13.8156 9.21707 14 8.75294 14C8.28882 14 7.8437 13.8156 7.51551 13.4874C7.18732 13.1592 7.00294 12.7141 7.00294 12.25C7.00294 11.7859 7.18732 11.3408 7.51551 11.0126C7.8437 10.6844 8.28882 10.5 8.75294 10.5ZM15.2529 10.5C15.7171 10.5 16.1622 10.6844 16.4904 11.0126C16.8186 11.3408 17.0029 11.7859 17.0029 12.25C17.0029 12.7141 16.8186 13.1592 16.4904 13.4874C16.1622 13.8156 15.7171 14 15.2529 14C14.7888 14 14.3437 13.8156 14.0155 13.4874C13.6873 13.1592 13.5029 12.7141 13.5029 12.25C13.5029 11.7859 13.6873 11.3408 14.0155 11.0126C14.3437 10.6844 14.7888 10.5 15.2529 10.5Z" fill="#EEEEFB"/>
</g>
<defs>
<clipPath id="clip0_676_179">
<rect width="24" height="24" fill="white"/>
</clipPath>
</defs>
</svg>
