<?xml version="1.0" encoding="UTF-8"?>
<svg id="Calque_1" data-name="Calque 1" xmlns="http://www.w3.org/2000/svg" version="1.1" viewBox="0 0 800 800">
  <defs>
    <style>
      .cls-1 {
        fill: #fff;
        stroke-width: 0px;
      }
    </style>
  </defs>
  <path class="cls-1" d="M673.1,162.9H126.9c-27.9,0-50.6,22.6-50.6,50.6v373c0,27.9,22.6,50.6,50.6,50.6h546.2c27.9,0,50.6-22.6,50.6-50.6V213.5c0-27.9-22.6-50.6-50.6-50.6ZM126.9,194.5h546.2c10.5,0,19,8.5,19,19v38.3l-292.1,159.4L107.9,251.8v-38.3c0-10.5,8.5-19,19-19ZM673.1,605.5H126.9c-10.5,0-19-8.5-19-19v-298.7l284.5,155.3c2.3,1.3,5,1.9,7.6,1.9,2.6,0,5.2-.6,7.6-1.9l284.5-155.3v298.7c0,10.5-8.5,19-19,19Z"/>
</svg>