<svg width="80" height="22" viewBox="0 0 80 22" fill="none" xmlns="http://www.w3.org/2000/svg">
<path d="M1.82223 6.61586C2.81634 6.61586 3.6281 5.79722 3.6281 4.77819C3.6281 3.77567 2.81634 2.95703 1.82223 2.95703C0.811764 2.95703 0 3.77567 0 4.77819C0 5.79722 0.811764 6.61586 1.82223 6.61586Z" fill="url(#paint0_linear_676_80)"/>
<path fill-rule="evenodd" clip-rule="evenodd" d="M14.1954 0.652344C8.59605 0.652344 4.04047 5.23 4.04047 10.8768C4.04047 11.6288 4.12346 12.3638 4.27248 13.0651V13.0486L0.511719 19.0296L7.56922 18.6288C9.34177 20.1824 11.6613 21.1183 14.196 21.1183C19.7954 21.1183 24.3509 16.5407 24.3509 10.8774C24.3509 10.1424 24.2679 9.40748 24.1189 8.70554L27.8791 2.7234L20.8216 3.12417C19.049 1.58768 16.7301 0.652344 14.1954 0.652344ZM14.1954 3.60923C10.2032 3.60923 6.97252 6.86728 6.97252 10.8768C6.97252 11.8121 7.15486 12.6809 7.45292 13.4995L6.29342 15.5711H8.67904C10.0045 17.1583 11.9921 18.1608 14.1954 18.1608C18.1876 18.1608 21.4183 14.9028 21.4183 10.8768C21.4183 9.95795 21.236 9.07271 20.9379 8.27058L22.0974 6.18243H19.7118C18.3869 4.61175 16.415 3.60923 14.1954 3.60923Z" fill="white"/>
<path d="M34.5042 21.9289H33.9745V19.6614L33.6211 20.8664H33.2148L32.8969 19.6614V21.9289H32.3672V18.5808H32.9854L33.4273 20.1046L33.8691 18.5808H34.5048L34.5042 21.9289ZM37.0144 21.9288H35.4065V21.4507H35.9362V19.0589H35.4065V18.5807H37.0144V19.0589H36.4666V21.4507H37.0144V21.9288ZM40.0733 20.9013C40.0378 21.0782 39.9848 21.2201 39.9144 21.3619C39.844 21.4857 39.7555 21.6101 39.667 21.6988C39.561 21.7876 39.4551 21.8582 39.3136 21.9113C39.1902 21.9644 39.0307 22.0001 38.8717 22.0001C38.6243 22.0001 38.4299 21.9469 38.271 21.8407C38.112 21.7519 37.9706 21.6282 37.8646 21.4688C37.7761 21.2919 37.6883 21.1145 37.6527 20.902C37.5998 20.6895 37.5823 20.477 37.5823 20.2645C37.5823 20.0338 37.5998 19.8213 37.6527 19.6089C37.6883 19.3964 37.7587 19.2189 37.8646 19.0595C37.9706 18.9001 38.094 18.7757 38.2535 18.6695C38.4124 18.5807 38.6069 18.5276 38.8362 18.5276C38.9066 18.5276 38.9777 18.5276 39.0662 18.5451C39.1366 18.5807 39.2077 18.5982 39.2606 18.6339C39.3311 18.687 39.384 18.7226 39.437 18.7757C39.49 18.8464 39.5255 18.8995 39.5429 18.9707V18.5807H40.0197V19.8563H39.5429C39.5429 19.7501 39.5255 19.6438 39.5074 19.5376C39.4719 19.4489 39.437 19.3426 39.384 19.272C39.3311 19.2014 39.2606 19.1301 39.1721 19.077C39.0836 19.0239 38.9777 19.0064 38.8717 19.0064C38.7128 19.0064 38.5888 19.042 38.5009 19.1126C38.395 19.1832 38.3246 19.2895 38.2716 19.4139C38.2012 19.5201 38.1656 19.662 38.1482 19.8038C38.1307 19.9632 38.1127 20.1051 38.1127 20.2645C38.1127 20.4063 38.1301 20.5657 38.1482 20.7076C38.1656 20.867 38.2012 20.9913 38.2716 21.1151C38.3246 21.2388 38.395 21.3276 38.5009 21.3988C38.5894 21.4876 38.7128 21.5226 38.8717 21.5226C39.0836 21.5226 39.2426 21.4519 39.3666 21.3101C39.4906 21.1682 39.5785 20.9913 39.6495 20.7432L40.0733 20.9013ZM42.9351 21.9288H42.2639L41.3983 20.5826H41.1509V21.9288H40.6211V18.5807H41.7161C42.0869 18.5807 42.3699 18.6695 42.5818 18.8289C42.7762 19.0057 42.8822 19.2539 42.8822 19.5907C42.8822 19.7326 42.8647 19.8563 42.8117 19.9807C42.7762 20.087 42.7058 20.1757 42.6173 20.2645C42.5469 20.3532 42.4409 20.4063 42.3343 20.4595C42.2284 20.4951 42.1044 20.5301 41.981 20.5482L42.9351 21.9288ZM42.3524 19.5726C42.3524 19.4132 42.2994 19.2714 42.1935 19.1826C42.0701 19.112 41.9286 19.0589 41.7167 19.0589H41.1515V20.1038H41.7167C41.9286 20.1038 42.0701 20.0507 42.1935 19.962C42.2994 19.8913 42.3524 19.7495 42.3524 19.5726ZM43.271 20.2632C43.271 20.0326 43.3066 19.8201 43.3415 19.6076C43.3944 19.3951 43.4649 19.2176 43.5714 19.0582C43.6774 18.8989 43.8008 18.7745 43.9603 18.6682C44.1367 18.5795 44.3311 18.5264 44.5611 18.5264C44.7905 18.5264 44.9849 18.5795 45.1438 18.6682C45.3027 18.7745 45.4442 18.8989 45.5502 19.0582C45.6561 19.2176 45.7265 19.3951 45.762 19.6076C45.815 19.8201 45.8325 20.0326 45.8325 20.2632C45.8325 20.4757 45.815 20.6882 45.762 20.9007C45.7265 21.1132 45.6561 21.2907 45.5502 21.4676C45.4442 21.6269 45.3202 21.7513 45.1613 21.8394C44.9849 21.9457 44.7905 21.9988 44.5605 21.9988C44.3305 21.9988 44.1186 21.9457 43.9597 21.8394C43.8008 21.7507 43.6593 21.6269 43.5708 21.4676C43.4649 21.2907 43.3944 21.1132 43.3408 20.9007C43.3059 20.6888 43.271 20.4763 43.271 20.2632ZM43.8008 20.2632C43.8008 20.4051 43.8182 20.5645 43.8363 20.7063C43.8718 20.8657 43.9067 20.9901 43.9597 21.1138C44.0127 21.2376 44.0831 21.3263 44.1897 21.3976C44.2782 21.4863 44.4016 21.5213 44.5605 21.5213C44.702 21.5213 44.8253 21.4857 44.9313 21.3976C45.0198 21.3269 45.1077 21.2382 45.1606 21.1138C45.2136 20.9901 45.2491 20.8657 45.2666 20.7063C45.3021 20.5645 45.3021 20.4051 45.3021 20.2632C45.3021 20.1038 45.3021 19.962 45.2666 19.8026C45.2491 19.6607 45.2136 19.5189 45.1606 19.4126C45.1077 19.2889 45.0192 19.182 44.9313 19.1114C44.8253 19.0407 44.7013 19.0051 44.5605 19.0051C44.3131 19.0051 44.1367 19.1114 43.9952 19.342C43.8718 19.5551 43.8008 19.8563 43.8008 20.2632ZM48.7653 18.5807L47.7233 21.9288H47.1225L46.0805 18.5807H46.6283L47.4235 21.2382L48.2188 18.5807H48.7653ZM51.0968 21.9288H49.4889V21.4507H50.0186V19.0589H49.4889V18.5807H51.0968V19.0589H50.549V21.4507H51.0968V21.9288ZM54.259 21.0076C54.259 21.167 54.2235 21.3088 54.1886 21.4326C54.1356 21.5388 54.0652 21.6451 53.9592 21.7338C53.8707 21.8226 53.7648 21.8757 53.6414 21.9288C53.518 21.9644 53.394 21.9994 53.2525 21.9994C53.0936 21.9994 52.9521 21.9638 52.8287 21.9107C52.7053 21.8576 52.5994 21.7513 52.4928 21.6269V21.9282H52.016V20.8301H52.4928C52.4928 20.9538 52.5283 21.0426 52.5632 21.1313C52.5988 21.202 52.6517 21.2732 52.7047 21.3438C52.7751 21.3969 52.8462 21.4326 52.934 21.4676C53.0225 21.5032 53.1104 21.5207 53.1989 21.5207C53.3578 21.5207 53.4819 21.4851 53.5878 21.3969C53.6763 21.3263 53.7293 21.2201 53.7293 21.0601C53.7293 20.9713 53.7118 20.9007 53.6763 20.8295C53.6588 20.7763 53.6059 20.7232 53.5529 20.6701C53.4999 20.6345 53.4295 20.5813 53.3585 20.5463C53.27 20.5107 53.1821 20.4757 53.0755 20.4401C52.9521 20.4045 52.8281 20.3513 52.7047 20.2982C52.5988 20.2451 52.4747 20.192 52.3869 20.1213C52.2984 20.0326 52.2105 19.9445 52.1569 19.8376C52.0865 19.7313 52.0684 19.5895 52.0684 19.4126C52.0684 19.2707 52.0858 19.147 52.1388 19.0226C52.1918 18.9164 52.2622 18.8276 52.3507 18.757C52.4567 18.6864 52.5452 18.6151 52.6686 18.5801C52.792 18.5445 52.916 18.527 53.0574 18.527C53.1989 18.527 53.3404 18.5626 53.4463 18.6157C53.5523 18.6864 53.6408 18.7751 53.6938 18.8814V18.5801H54.1705V19.6251H53.6938C53.6938 19.4301 53.6582 19.2707 53.5523 19.1645C53.4463 19.0582 53.3049 19.0051 53.1285 19.0051C52.9696 19.0051 52.8456 19.0407 52.7396 19.1114C52.6511 19.182 52.5981 19.2707 52.5981 19.4126C52.5981 19.4832 52.6156 19.5364 52.6337 19.572C52.6692 19.6251 52.7041 19.6782 52.7571 19.7138C52.7926 19.7495 52.863 19.7845 52.9334 19.8201C53.0219 19.8557 53.1098 19.8907 53.1983 19.9263C53.3398 19.962 53.4632 20.0151 53.5872 20.0857C53.7106 20.1388 53.8165 20.2095 53.9231 20.2807C54.0116 20.3695 54.0995 20.4576 54.1705 20.582C54.2241 20.7063 54.259 20.8482 54.259 21.0076ZM56.8204 21.9288H55.2125V21.4507H55.7423V19.0589H55.2125V18.5807H56.8204V19.0589H56.2726V21.4507H56.8204V21.9288ZM57.5982 20.2632C57.5982 20.0326 57.6157 19.8201 57.6686 19.6076C57.7216 19.3951 57.792 19.2176 57.8986 19.0582C57.9871 18.8989 58.1286 18.7745 58.2875 18.6682C58.4464 18.5795 58.6409 18.5264 58.8883 18.5264C59.1182 18.5264 59.3121 18.5795 59.471 18.6682C59.6299 18.7745 59.7714 18.8989 59.8599 19.0582C59.9658 19.2176 60.0362 19.3951 60.0898 19.6076C60.1434 19.8201 60.1603 20.0326 60.1603 20.2632C60.1603 20.4757 60.1428 20.6882 60.0898 20.9007C60.0369 21.1132 59.9664 21.2907 59.8779 21.4676C59.772 21.6269 59.6305 21.7513 59.4716 21.8394C59.3127 21.9457 59.1182 21.9988 58.8889 21.9988C58.6415 21.9988 58.447 21.9457 58.2881 21.8394C58.1292 21.7507 57.9877 21.6269 57.8818 21.4676C57.7933 21.2907 57.7054 21.1132 57.6699 20.9007C57.6157 20.6888 57.5982 20.4763 57.5982 20.2632ZM58.128 20.2632C58.128 20.4051 58.1454 20.5645 58.1635 20.7063C58.1809 20.8657 58.2339 20.9901 58.2869 21.1138C58.3398 21.2376 58.4103 21.3263 58.5168 21.3976C58.6053 21.4863 58.7287 21.5213 58.8877 21.5213C59.0291 21.5213 59.1525 21.4857 59.241 21.3976C59.347 21.3269 59.4174 21.2382 59.471 21.1138C59.524 20.9901 59.5769 20.8657 59.5944 20.7063C59.6118 20.5645 59.6299 20.4051 59.6299 20.2632C59.6299 20.1038 59.6125 19.962 59.5944 19.8026C59.5769 19.6607 59.524 19.5189 59.471 19.4126C59.418 19.2889 59.3476 19.182 59.241 19.1114C59.1525 19.0407 59.0291 19.0051 58.8877 19.0051C58.6402 19.0051 58.4458 19.1114 58.3224 19.342C58.199 19.5551 58.128 19.8563 58.128 20.2632ZM62.8096 21.9288H62.1913L61.2023 19.502V21.9288H60.6726V18.5807H61.3438L62.2798 20.9013V18.5807H62.8096V21.9288ZM68.7102 20.9013C68.6747 21.0782 68.6217 21.2201 68.5513 21.3619C68.4809 21.4857 68.3924 21.6101 68.3039 21.6988C68.1979 21.7876 68.092 21.8582 67.9505 21.9113C67.8271 21.9644 67.6856 22.0001 67.5086 22.0001C67.2793 22.0001 67.0848 21.9469 66.9079 21.8407C66.7489 21.7519 66.6249 21.6282 66.519 21.4688C66.413 21.2919 66.3426 21.1145 66.2896 20.902C66.2366 20.6895 66.2192 20.477 66.2192 20.2645C66.2192 20.0338 66.2366 19.8213 66.2896 19.6089C66.3426 19.3964 66.413 19.2189 66.519 19.0595C66.6075 18.9001 66.7489 18.7757 66.9079 18.6695C67.0493 18.5807 67.2438 18.5276 67.4731 18.5276C67.5435 18.5276 67.632 18.5276 67.7031 18.5451C67.7735 18.5807 67.8446 18.5982 67.915 18.6339C67.9679 18.687 68.0384 18.7226 68.0739 18.7757C68.1269 18.8464 68.1624 18.8995 68.1798 18.9707V18.5807H68.6566V19.8563H68.1798C68.1798 19.7501 68.1798 19.6438 68.1443 19.5376C68.1269 19.4489 68.0739 19.3426 68.0209 19.272C67.9679 19.2014 67.8975 19.1301 67.809 19.077C67.7205 19.0239 67.6327 19.0064 67.5086 19.0064C67.3672 19.0064 67.2438 19.042 67.1378 19.1126C67.0493 19.1832 66.9614 19.2895 66.9085 19.4139C66.8555 19.5201 66.8025 19.662 66.7851 19.8038C66.7676 19.9632 66.7496 20.1051 66.7496 20.2645C66.7496 20.4063 66.767 20.5657 66.7851 20.7076C66.8025 20.867 66.8555 20.9913 66.9085 21.1151C66.9614 21.2388 67.0319 21.3276 67.1378 21.3988C67.2263 21.4876 67.3497 21.5226 67.5086 21.5226C67.7205 21.5226 67.8975 21.4519 68.0035 21.3101C68.1269 21.1682 68.2154 20.9913 68.2864 20.7432L68.7102 20.9013ZM71.395 21.9288H70.8653V20.4582H69.7877V21.9288H69.258V18.5807H69.7877V19.9801H70.8653V18.5807H71.395V21.9288ZM73.992 21.9288L73.7446 21.1313H72.6496L72.4021 21.9288H71.8543L72.8964 18.5807H73.4971L74.5392 21.9288H73.992ZM72.791 20.6707H73.6037L73.1974 19.2889L72.791 20.6707ZM76.8719 21.9288H75.264V21.4507H75.7937V19.0589H75.264V18.5807H76.8719V19.0589H76.3241V21.4507H76.8719V21.9288ZM79.9986 21.9288H79.3803L78.3913 19.502V21.9288H77.8615V18.5807H78.5153L79.4694 20.9013V18.5807H79.9992V21.9288H79.9986Z" fill="#177DDB"/>
<path fill-rule="evenodd" clip-rule="evenodd" d="M42.7073 8.0361L40.819 11.6784H37.9366L36.0811 8.0697V16.6734H32.3203V0.267575H36.5445L39.3772 6.54911L42.2099 0.267575H46.4675V16.6734H42.7067V8.0361H42.7073ZM56.3746 11.9283L60.5328 0.266986H64.4753L58.3459 16.6734H54.3864L48.257 0.267575H52.1995L56.3746 11.9283ZM76.1714 1.2365V0.267575H79.6171V6.90038H76.1714V6.56562C76.1714 6.09765 76.0884 5.64678 75.9563 5.19591C75.8406 4.77805 75.6249 4.37727 75.3269 4.0431C75.0452 3.69242 74.6811 3.42485 74.2498 3.22446C73.7857 2.99048 73.2557 2.92388 72.7256 2.92388C72.0792 2.92388 71.4171 3.02407 70.887 3.37475C70.3733 3.69242 69.9922 4.12679 69.6942 4.61125C69.3628 5.17941 69.1641 5.78057 69.0478 6.41533C68.9152 7.08367 68.8655 7.76853 68.8655 8.47047C68.8655 9.15532 68.9315 9.85726 69.0478 10.5421C69.1635 11.1604 69.3628 11.7786 69.6772 12.3297C69.9589 12.8307 70.3563 13.2485 70.87 13.5662C71.4001 13.9169 72.0629 14.0342 72.7256 14.0342C73.7028 14.0342 74.6139 13.8167 75.2766 13.1654C75.989 12.4635 76.453 11.5446 76.7675 10.6594L76.9001 10.3252L79.9982 11.3107L79.9152 11.6112C79.6832 12.3633 79.3687 13.0982 78.9544 13.7831C78.557 14.4178 78.0766 14.986 77.4635 15.4705C76.8674 15.9549 76.1714 16.3056 75.4093 16.5567C74.5478 16.8407 73.6367 16.9409 72.7256 16.9409C71.4995 16.9409 70.2739 16.7571 69.1968 16.2225C68.2197 15.738 67.4243 15.0862 66.8112 14.2846C66.1818 13.466 65.7511 12.5472 65.5027 11.5782C65.221 10.5592 65.1053 9.50659 65.1053 8.45397C65.1053 7.40135 65.221 6.36582 65.5027 5.3297C65.7511 4.37727 66.1654 3.45844 66.7949 2.6398C67.391 1.85476 68.17 1.20291 69.0975 0.735538C70.1413 0.183884 71.3504 0 72.5596 0C73.0067 0 73.4707 0.0500967 73.9015 0.15029C74.3655 0.233981 74.7962 0.384271 75.1936 0.584658C75.5583 0.768542 75.8733 0.985432 76.1714 1.2365Z" fill="white"/>
<defs>
<linearGradient id="paint0_linear_676_80" x1="-1.98585" y1="6.5781" x2="4.26308" y2="4.76683" gradientUnits="userSpaceOnUse">
<stop stop-color="#48AAAD"/>
<stop offset="1" stop-color="#177DDB"/>
</linearGradient>
</defs>
</svg>
