<?xml version="1.0" encoding="UTF-8"?>
<svg id="Calque_1" data-name="Calque 1" xmlns="http://www.w3.org/2000/svg" version="1.1" viewBox="0 0 1312 150">
  <defs>
    <style>
      .cls-1 {
        fill: #fff;
        stroke-width: 0px;
      }
    </style>
  </defs>
  <path class="cls-1" d="M65.3,123.3h-15.3V57.9l-9.7,34.8h-11.9l-9.6-34.8v65.5H3.4V26.6h18.2l12.6,43.7,12.6-43.7h18.4v96.8Z"/>
  <path class="cls-1" d="M140.7,123.3h-46.4v-13.8h15.3V40.4h-15.3v-13.8h46.4v13.8h-15.8v69.2h15.8v13.8Z"/>
  <path class="cls-1" d="M236.2,93.8c-1.2,4.7-2.8,9-4.7,12.9-2,3.9-4.4,7.1-7.2,9.8-2.8,2.7-6.2,4.8-9.9,6.3-3.8,1.5-8.1,2.2-13,2.2s-12.5-1.4-17.2-4.2c-4.7-2.8-8.6-6.5-11.6-11.2s-5.2-10-6.5-16c-1.3-6-2-12.2-2-18.7s.7-12.7,2-18.8c1.3-6,3.4-11.3,6.4-15.9s6.7-8.3,11.2-11.1c4.6-2.8,10.1-4.2,16.7-4.2s4.3.3,6.5.8c2.2.5,4.2,1.4,6.1,2.5,1.9,1.1,3.5,2.5,4.9,4.1,1.4,1.6,2.4,3.5,3,5.6v-11.4h13.8v36.6h-13.8c0-3-.4-6-1.1-8.9-.7-2.9-1.9-5.5-3.6-7.8-1.6-2.3-3.7-4.1-6.2-5.6-2.5-1.4-5.4-2.2-8.7-2.2s-7.9,1.1-10.7,3.2c-2.8,2.1-5,4.9-6.7,8.4-1.7,3.5-2.9,7.3-3.5,11.7-.7,4.3-1,8.6-1,13s.3,8.7,1,13.1c.7,4.4,1.8,8.3,3.4,11.7,1.6,3.4,3.9,6.2,6.7,8.3,2.8,2.1,6.4,3.2,10.8,3.2,6.3,0,11.1-2,14.5-6,3.4-4,6.1-9.4,8.1-16.2l12.3,4.7Z"/>
  <path class="cls-1" d="M318.9,123.3h-19.4l-25.1-39.1h-7v39.1h-15.3V26.6h31.9c10.6,0,18.9,2.4,24.8,7.3,5.9,4.9,8.8,12.1,8.8,21.6s-.7,8-2,11.2c-1.3,3.2-3.2,6-5.6,8.3-2.4,2.3-5.2,4.2-8.4,5.5-3.2,1.4-6.6,2.3-10.3,2.8l27.6,40ZM302.2,55.2c0-4.9-1.6-8.6-4.9-11.1-3.2-2.5-7.7-3.7-13.4-3.7h-16.5v29.9h16.5c5.7,0,10.1-1.2,13.4-3.7,3.2-2.5,4.9-6.3,4.9-11.3Z"/>
  <path class="cls-1" d="M328.9,74.9c0-6.5.7-12.7,2.1-18.8,1.4-6,3.5-11.3,6.5-15.9,2.9-4.6,6.7-8.3,11.5-11.1,4.7-2.8,10.4-4.2,17.1-4.2s12.4,1.4,17.1,4.2c4.7,2.8,8.6,6.5,11.5,11.1,3,4.6,5.1,9.9,6.5,15.9,1.3,6,2,12.3,2,18.8s-.7,12.7-2,18.7c-1.3,6-3.5,11.3-6.4,16-2.9,4.7-6.7,8.4-11.5,11.2-4.7,2.8-10.5,4.2-17.2,4.2s-12.5-1.4-17.2-4.2c-4.7-2.8-8.6-6.5-11.5-11.2-2.9-4.7-5.1-10-6.4-16-1.3-6-2-12.2-2-18.7ZM344.2,75c0,4.4.3,8.7,1,13.1.7,4.4,1.8,8.3,3.4,11.7,1.6,3.4,3.8,6.2,6.6,8.3,2.8,2.1,6.4,3.2,10.7,3.2s7.9-1.1,10.7-3.2c2.8-2.1,5-4.9,6.6-8.3,1.6-3.4,2.7-7.3,3.4-11.7.7-4.4,1-8.7,1-13.1s-.3-8.7-1-13c-.7-4.3-1.8-8.2-3.4-11.7-1.6-3.5-3.8-6.3-6.7-8.4-2.8-2.1-6.4-3.2-10.6-3.2-7.1,0-12.5,3.2-16.2,9.6-3.7,6.4-5.6,15.3-5.6,26.6Z"/>
  <path class="cls-1" d="M487.7,26.6l-30.2,96.8h-17.5l-30.2-96.8h16.1l22.9,76.6,22.8-76.6h16.1Z"/>
  <path class="cls-1" d="M555.1,123.3h-46.4v-13.8h15.3V40.4h-15.3v-13.8h46.4v13.8h-15.8v69.2h15.8v13.8Z"/>
  <path class="cls-1" d="M646.7,96.8c0,4.4-.8,8.4-2.3,11.9-1.5,3.5-3.6,6.4-6.2,8.9-2.6,2.4-5.7,4.3-9.3,5.6-3.6,1.3-7.4,1.9-11.5,1.9s-8.6-.8-12.3-2.5c-3.7-1.6-6.8-4.3-9.4-8.1v8.9h-13.8v-31.7h13.8c0,3.2.6,6,1.7,8.4,1.1,2.4,2.6,4.5,4.4,6.1,1.8,1.7,4,2.9,6.4,3.8,2.4.9,5,1.3,7.7,1.3,4.6,0,8.3-1.1,11.1-3.2,2.8-2.1,4.2-5.5,4.2-10.1s-.4-4.5-1.3-6.2c-.9-1.7-2.1-3.3-3.7-4.6-1.6-1.4-3.6-2.5-5.9-3.6-2.3-1-5-2.1-7.9-3.2-3.5-1.2-7-2.5-10.5-4-3.5-1.5-6.6-3.3-9.4-5.5-2.8-2.2-5-4.9-6.7-8-1.7-3.2-2.6-7.2-2.6-12s.8-8,2.3-11.1c1.6-3.2,3.6-5.9,6.2-8,2.6-2.2,5.6-3.8,9-4.9,3.4-1.1,7.1-1.7,10.9-1.7s8.3.9,11.5,2.8c3.2,1.9,5.6,4.4,7.4,7.5v-8.7h13.8v30.1h-13.8c0-5.7-1.5-10.1-4.5-13.3-3-3.2-7-4.8-12-4.8s-8.1,1-11.1,3.1c-2.9,2.1-4.4,5-4.4,8.7s.4,3.6,1.1,4.9c.8,1.4,1.9,2.6,3.3,3.7,1.5,1.1,3.3,2.2,5.5,3.1s4.8,2,7.7,3.2c3.7,1.3,7.3,2.7,10.9,4.4,3.6,1.6,6.8,3.6,9.7,6,2.9,2.4,5.2,5.3,7,8.6,1.8,3.4,2.7,7.5,2.7,12.4Z"/>
  <path class="cls-1" d="M720.9,123.3h-46.4v-13.8h15.3V40.4h-15.3v-13.8h46.4v13.8h-15.8v69.2h15.8v13.8Z"/>
  <path class="cls-1" d="M743.3,74.9c0-6.5.7-12.7,2.1-18.8,1.4-6,3.5-11.3,6.5-15.9s6.7-8.3,11.5-11.1c4.7-2.8,10.4-4.2,17.1-4.2s12.4,1.4,17.1,4.2c4.7,2.8,8.6,6.5,11.5,11.1,3,4.6,5.1,9.9,6.4,15.9,1.3,6,2,12.3,2,18.8s-.7,12.7-2,18.7-3.5,11.3-6.4,16-6.7,8.4-11.5,11.2c-4.7,2.8-10.5,4.2-17.2,4.2s-12.5-1.4-17.2-4.2c-4.7-2.8-8.6-6.5-11.5-11.2-2.9-4.7-5.1-10-6.4-16s-2-12.2-2-18.7ZM758.7,75c0,4.4.3,8.7,1,13.1s1.8,8.3,3.4,11.7,3.8,6.2,6.6,8.3c2.8,2.1,6.4,3.2,10.7,3.2s7.9-1.1,10.7-3.2c2.8-2.1,5-4.9,6.6-8.3s2.7-7.3,3.4-11.7,1-8.7,1-13.1-.3-8.7-1-13c-.7-4.3-1.8-8.2-3.4-11.7-1.6-3.5-3.8-6.3-6.7-8.4-2.8-2.1-6.4-3.2-10.6-3.2-7.1,0-12.5,3.2-16.2,9.6-3.7,6.4-5.6,15.3-5.6,26.6Z"/>
  <path class="cls-1" d="M894.1,123.3h-17.8l-28.7-70.1v70.1h-15.3V26.6h19.3l27.2,66.7V26.6h15.3v96.8Z"/>
  <path class="cls-1" d="M982.2,93.8c-1.2,4.7-2.8,9-4.7,12.9-2,3.9-4.4,7.1-7.2,9.8-2.8,2.7-6.2,4.8-9.9,6.3-3.8,1.5-8.1,2.2-13,2.2s-12.5-1.4-17.2-4.2-8.6-6.5-11.6-11.2-5.2-10-6.5-16-2-12.2-2-18.7.7-12.7,2-18.8c1.3-6,3.4-11.3,6.4-15.9,2.9-4.6,6.7-8.3,11.2-11.1,4.6-2.8,10.1-4.2,16.7-4.2s4.3.3,6.5.8c2.2.5,4.2,1.4,6.1,2.5,1.9,1.1,3.5,2.5,4.9,4.1,1.4,1.6,2.4,3.5,3,5.6v-11.4h13.8v36.6h-13.8c0-3-.4-6-1.1-8.9-.7-2.9-1.9-5.5-3.6-7.8-1.6-2.3-3.7-4.1-6.2-5.6-2.5-1.4-5.4-2.2-8.7-2.2s-7.9,1.1-10.7,3.2c-2.8,2.1-5,4.9-6.7,8.4-1.7,3.5-2.9,7.3-3.5,11.7-.7,4.3-1,8.6-1,13s.3,8.7,1,13.1,1.8,8.3,3.4,11.7c1.6,3.4,3.9,6.2,6.7,8.3,2.8,2.1,6.4,3.2,10.7,3.2,6.3,0,11.1-2,14.5-6,3.4-4,6.1-9.4,8.1-16.2l12.3,4.7Z"/>
  <path class="cls-1" d="M1059.9,123.3h-15.3v-42.3h-31.1v42.3h-15.3V26.6h15.3v40.6h31.1V26.6h15.3v96.8Z"/>
  <path class="cls-1" d="M1134.9,123.3l-7-23.1h-32l-6.8,23.1h-16.1l30.2-96.8h17.6l30.2,96.8h-16.1ZM1100,86.7h23.9l-11.9-39.9-12,39.9Z"/>
  <path class="cls-1" d="M1218.2,123.3h-46.4v-13.8h15.3V40.4h-15.3v-13.8h46.4v13.8h-15.8v69.2h15.8v13.8Z"/>
  <path class="cls-1" d="M1308.6,123.3h-17.8l-28.7-70.1v70.1h-15.3V26.6h19.3l27.2,66.7V26.6h15.3v96.8Z"/>
</svg>