<?xml version="1.0" encoding="UTF-8"?>
<svg id="Calque_1" data-name="Calque 1" xmlns="http://www.w3.org/2000/svg" version="1.1" xmlns:xlink="http://www.w3.org/1999/xlink" viewBox="0 0 32 32">
  <defs>
    <style>
      .cls-1 {
        fill: url(#Dégradé_sans_nom_3);
      }

      .cls-1, .cls-2 {
        stroke-width: 0px;
      }

      .cls-2 {
        fill: #fff;
      }
    </style>
    <linearGradient id="Dégradé_sans_nom_3" data-name="Dégradé sans nom 3" x1=".5" y1="10.7" x2="4" y2="7.8" gradientUnits="userSpaceOnUse">
      <stop offset="0" stop-color="#3397c0"/>
      <stop offset="1" stop-color="#1e83d4"/>
    </linearGradient>
  </defs>
  <path class="cls-2" d="M31.9,6.9s0,0-.1,0c-.4,0-.8,0-1.1,0-.7,0-1.4,0-2.2.1-.5,0-1,0-1.5,0-.6,0-1.2,0-1.7.1-.3,0-.6,0-.9,0-.4,0-.7,0-1-.3-.7-.5-1.3-.9-2-1.3-.8-.4-1.6-.8-2.5-1-.8-.2-1.7-.3-2.5-.4-.4,0-.7,0-1.1,0-.4,0-.9,0-1.3.2-.9.2-1.7.4-2.5.8-.9.4-1.7.8-2.5,1.4-.8.6-1.6,1.3-2.2,2.1-.7.9-1.2,1.8-1.6,2.8-.6,1.4-.8,2.9-.9,4.4,0,.3,0,.6,0,.8,0,.2,0,.5,0,.7,0,.5,0,1-.2,1.4-.5.8-1.1,1.6-1.6,2.5-.5.8-1,1.6-1.5,2.4-.2.4-.5.8-.7,1.1,0,0,0,.1,0,.2,0,0,.1,0,.2,0,.2,0,.4,0,.6,0,.9,0,1.7,0,2.6-.1.6,0,1.3,0,1.9-.1.4,0,.7,0,1.1,0,.4,0,.8,0,1.3,0,.2,0,.4,0,.6.2.6.5,1.3,1,2.1,1.4.7.4,1.5.7,2.3.9,1,.3,2,.5,3.1.5.2,0,.6,0,1,0,.8,0,1.6-.2,2.3-.5,1.1-.3,2.1-.8,3.1-1.5,1-.7,1.9-1.6,2.7-2.6,1-1.3,1.8-2.8,2.2-4.5.1-.6.2-1.1.2-1.7,0-.5,0-1.1,0-1.6,0-.4,0-.8-.1-1.2,0-.4,0-.7.2-1.1.2-.2.3-.4.5-.7.7-1,1.4-2,2.1-2.9.6-.8,1.2-1.7,1.7-2.5,0,0,0,0,0-.1ZM24.7,11c-.2.4-.5.8-.7,1.2-.3.6-.4,1.1-.3,1.8.1.5.2,1,.3,1.6,0,.4,0,.9,0,1.3,0,.4-.1.8-.2,1.2-.2.7-.4,1.3-.8,1.9-.4.7-.9,1.3-1.4,1.9-1,1-2.2,1.6-3.5,2-.9.2-1.8.3-2.7.3-1,0-1.9-.3-2.8-.7-.6-.3-1.2-.7-1.8-1.1-.2-.2-.4-.3-.6-.5-.4-.4-.9-.6-1.4-.6-.3,0-.5,0-.8,0h0c-.3,0-.6,0-.8,0-.1,0-.2,0,0-.2.2-.3.3-.6.5-.9.5-.8.6-1.6.4-2.4-.1-.6-.2-1.2-.2-1.9,0-.8.1-1.5.3-2.3.3-.9.8-1.7,1.4-2.5.6-.8,1.3-1.4,2.2-2,.9-.6,1.9-1,3-1.1.6,0,1.2-.1,1.8,0,.7,0,1.4.2,2.1.4.9.3,1.8.8,2.6,1.4.3.2.5.5.8.7.3.2.7.4,1.2.4.5,0,1.1,0,1.6,0,.1,0,.2,0,0,.1Z"/>
  <path class="cls-1" d="M2.2,11.4c-1.2,0-2.1-.9-2.1-2.1,0-1.2.9-2.1,2.1-2.1,1.2,0,2.1,1,2.1,2.1,0,1.2-.9,2.1-2.1,2.1Z"/>
</svg>