<?xml version="1.0" encoding="UTF-8"?>
<svg id="Calque_1" data-name="Calque 1" xmlns="http://www.w3.org/2000/svg" version="1.1" viewBox="0 0 800 800">
  <defs>
    <style>
      .cls-1 {
        fill: #fff;
        stroke-width: 0px;
      }
    </style>
  </defs>
  <path class="cls-1" d="M692.3,133.9c-9.8-8.5-23.6-10.8-35.7-6.1L117.8,339.5c-18,7.1-26.9,27.4-19.8,45.4,4.4,11.1,14.1,19.2,25.7,21.5l146.2,29.3v180.5c-.1,14.2,8.4,27.1,21.6,32.4,4.3,1.8,8.9,2.7,13.6,2.8,9.2,0,18.1-3.8,24.5-10.4l83.5-83.5,123.2,108.4c6.3,5.6,14.5,8.8,23,8.8,3.7,0,7.4-.6,10.9-1.7,11.8-3.7,20.7-13.5,23.4-25.5l109.8-479.2c2.9-12.7-1.4-25.9-11.3-34.4ZM119,373.1c-.6-5.2,2.4-10.1,7.4-11.9l493.9-194-341.3,246.5-150.6-30.1c-5.2-.9-9-5.2-9.3-10.4ZM313.3,624.4c-4.6,4.6-12,4.6-16.5,0-2.2-2.2-3.4-5.2-3.4-8.3v-164.3l102.4,90.1-82.4,82.4ZM680.8,163l-109.8,479.2c-1.4,6.3-7.7,10.2-14,8.8-1.9-.4-3.6-1.3-5.1-2.6l-251.5-221.3,378.5-273.4c2,2.7,2.7,6.1,1.9,9.4Z"/>
</svg>